# Blender v2.93.5 OBJ File: ''
# www.blender.org
mtllib map.mtl
o Cube
v 78.247101 1.000000 -69.681831
v 78.247101 -1.000000 -69.681831
v 78.247101 1.000000 69.681831
v 78.247101 -1.000000 69.681831
v -78.247101 1.000000 -69.681831
v -78.247101 -1.000000 -69.681831
v -78.247101 1.000000 69.681831
v -78.247101 -1.000000 69.681831
vt 0.625000 0.500000
vt 0.875000 0.500000
vt 0.875000 0.750000
vt 0.626878 0.750000
vt 0.375000 0.750000
vt 0.625000 1.000000
vt 0.375000 1.000000
vt 0.375000 0.000000
vt 0.625000 0.000000
vt 0.625000 0.250000
vt 0.375000 0.250000
vt 0.125000 0.500000
vt 0.375000 0.500000
vt 0.125000 0.750000
vn 0.0000 1.0000 0.0000
vn 0.0000 0.0000 1.0000
vn -1.0000 0.0000 0.0000
vn 0.0000 -1.0000 0.0000
vn 1.0000 0.0000 0.0000
vn 0.0000 0.0000 -1.0000
usemtl Material.002
s off
f 1/1/1 5/2/1 7/3/1 3/4/1
f 4/5/2 3/4/2 7/6/2 8/7/2
f 8/8/3 7/9/3 5/10/3 6/11/3
f 6/12/4 2/13/4 4/5/4 8/14/4
f 2/13/5 1/1/5 3/4/5 4/5/5
f 6/11/6 5/10/6 1/1/6 2/13/6
o Cube.001
v 78.247101 19.427937 -69.149086
v 78.247101 1.135190 -69.149086
v 78.247101 19.427937 -79.490288
v 78.247101 1.135190 -79.490288
v -78.247101 19.427937 -69.149086
v -78.247101 1.135190 -69.149086
v -78.247101 19.427937 -79.490288
v -78.247101 1.135190 -79.490288
vt 0.625000 0.500000
vt 0.626878 0.750000
vt 0.875000 0.750000
vt 0.875000 0.500000
vt 0.375000 0.750000
vt 0.375000 1.000000
vt 0.625000 1.000000
vt 0.375000 0.000000
vt 0.375000 0.250000
vt 0.625000 0.250000
vt 0.625000 0.000000
vt 0.125000 0.500000
vt 0.125000 0.750000
vt 0.375000 0.500000
vn 0.0000 1.0000 0.0000
vn 0.0000 0.0000 -1.0000
vn -1.0000 0.0000 0.0000
vn 0.0000 -1.0000 0.0000
vn 1.0000 0.0000 0.0000
vn 0.0000 0.0000 1.0000
usemtl Material.003
s off
f 9/15/7 11/16/7 15/17/7 13/18/7
f 12/19/8 16/20/8 15/21/8 11/16/8
f 16/22/9 14/23/9 13/24/9 15/25/9
f 14/26/10 16/27/10 12/19/10 10/28/10
f 10/28/11 12/19/11 11/16/11 9/15/11
f 14/23/12 10/28/12 9/15/12 13/24/12
o Cube.002
v 78.247101 19.427937 79.519600
v 78.247101 1.135190 79.519600
v 78.247101 19.427937 69.178398
v 78.247101 1.135190 69.178398
v -78.247101 19.427937 79.519600
v -78.247101 1.135190 79.519600
v -78.247101 19.427937 69.178398
v -78.247101 1.135190 69.178398
vt 0.625000 0.500000
vt 0.626878 0.750000
vt 0.875000 0.750000
vt 0.875000 0.500000
vt 0.375000 0.750000
vt 0.375000 1.000000
vt 0.625000 1.000000
vt 0.375000 0.000000
vt 0.375000 0.250000
vt 0.625000 0.250000
vt 0.625000 0.000000
vt 0.125000 0.500000
vt 0.125000 0.750000
vt 0.375000 0.500000
vn 0.0000 1.0000 0.0000
vn 0.0000 0.0000 -1.0000
vn -1.0000 0.0000 0.0000
vn 0.0000 -1.0000 0.0000
vn 1.0000 0.0000 0.0000
vn 0.0000 0.0000 1.0000
usemtl Material.004
s off
f 17/29/13 19/30/13 23/31/13 21/32/13
f 20/33/14 24/34/14 23/35/14 19/30/14
f 24/36/15 22/37/15 21/38/15 23/39/15
f 22/40/16 24/41/16 20/33/16 18/42/16
f 18/42/17 20/33/17 19/30/17 17/29/17
f 22/37/18 18/42/18 17/29/18 21/38/18
o Cube.003
v 76.284050 19.427937 77.841759
v 76.284050 1.135190 77.841759
v 86.624657 19.427937 77.730339
v 86.624657 1.135190 77.730339
v 74.597984 19.427937 -78.643364
v 74.597984 1.135190 -78.643364
v 84.938591 19.427937 -78.754784
v 84.938591 1.135190 -78.754784
vt 0.625000 0.500000
vt 0.626878 0.750000
vt 0.875000 0.750000
vt 0.875000 0.500000
vt 0.375000 0.750000
vt 0.375000 1.000000
vt 0.625000 1.000000
vt 0.375000 0.000000
vt 0.375000 0.250000
vt 0.625000 0.250000
vt 0.625000 0.000000
vt 0.125000 0.500000
vt 0.125000 0.750000
vt 0.375000 0.500000
vn 0.0000 1.0000 0.0000
vn 0.9999 0.0000 -0.0108
vn -0.0108 0.0000 -0.9999
vn 0.0000 -1.0000 0.0000
vn 0.0108 0.0000 0.9999
vn -0.9999 0.0000 0.0108
usemtl Material.005
s off
f 25/43/19 27/44/19 31/45/19 29/46/19
f 28/47/20 32/48/20 31/49/20 27/44/20
f 32/50/21 30/51/21 29/52/21 31/53/21
f 30/54/22 32/55/22 28/47/22 26/56/22
f 26/56/23 28/47/23 27/44/23 25/43/23
f 30/51/24 26/56/24 25/43/24 29/52/24
o Cube.004
v -85.960640 19.427937 77.841759
v -85.960640 1.135190 77.841759
v -75.620033 19.427937 77.730339
v -75.620033 1.135190 77.730339
v -87.646706 19.427937 -78.643364
v -87.646706 1.135190 -78.643364
v -77.306099 19.427937 -78.754784
v -77.306099 1.135190 -78.754784
vt 0.625000 0.500000
vt 0.626878 0.750000
vt 0.875000 0.750000
vt 0.875000 0.500000
vt 0.375000 0.750000
vt 0.375000 1.000000
vt 0.625000 1.000000
vt 0.375000 0.000000
vt 0.375000 0.250000
vt 0.625000 0.250000
vt 0.625000 0.000000
vt 0.125000 0.500000
vt 0.125000 0.750000
vt 0.375000 0.500000
vn 0.0000 1.0000 0.0000
vn 0.9999 0.0000 -0.0108
vn -0.0108 0.0000 -0.9999
vn 0.0000 -1.0000 0.0000
vn 0.0108 0.0000 0.9999
vn -0.9999 0.0000 0.0108
usemtl Material.006
s off
f 33/57/25 35/58/25 39/59/25 37/60/25
f 36/61/26 40/62/26 39/63/26 35/58/26
f 40/64/27 38/65/27 37/66/27 39/67/27
f 38/68/28 40/69/28 36/61/28 34/70/28
f 34/70/29 36/61/29 35/58/29 33/57/29
f 38/65/30 34/70/30 33/57/30 37/66/30
o Cube.005
v -53.158268 5.466611 48.592617
v -53.158268 12.892932 48.592617
v -53.158268 5.466611 38.365597
v -53.158268 12.892932 38.365597
v -43.436001 5.466611 48.592617
v -43.436001 12.892932 48.592617
v -43.436001 5.466611 38.365597
v -43.436001 12.892932 38.365597
vt 0.375000 0.000000
vt 0.625000 0.000000
vt 0.625000 0.250000
vt 0.375000 0.250000
vt 0.625000 0.500000
vt 0.375000 0.500000
vt 0.625000 0.750000
vt 0.375000 0.750000
vt 0.625000 1.000000
vt 0.375000 1.000000
vt 0.125000 0.500000
vt 0.125000 0.750000
vt 0.875000 0.500000
vt 0.875000 0.750000
vn -1.0000 0.0000 0.0000
vn 0.0000 0.0000 -1.0000
vn 1.0000 0.0000 0.0000
vn 0.0000 0.0000 1.0000
vn 0.0000 -1.0000 0.0000
vn 0.0000 1.0000 0.0000
usemtl None
s off
f 41/71/31 42/72/31 44/73/31 43/74/31
f 43/74/32 44/73/32 48/75/32 47/76/32
f 47/76/33 48/75/33 46/77/33 45/78/33
f 45/78/34 46/77/34 42/79/34 41/80/34
f 43/81/35 47/76/35 45/78/35 41/82/35
f 48/75/36 44/83/36 42/84/36 46/77/36
o Cube.006
v -53.158268 5.466611 24.457321
v -53.158268 12.892932 24.457321
v -53.158268 5.466611 14.230300
v -53.158268 12.892932 14.230300
v -43.436001 5.466611 24.457321
v -43.436001 12.892932 24.457321
v -43.436001 5.466611 14.230300
v -43.436001 12.892932 14.230300
vt 0.375000 0.000000
vt 0.625000 0.000000
vt 0.625000 0.250000
vt 0.375000 0.250000
vt 0.625000 0.500000
vt 0.375000 0.500000
vt 0.625000 0.750000
vt 0.375000 0.750000
vt 0.625000 1.000000
vt 0.375000 1.000000
vt 0.125000 0.500000
vt 0.125000 0.750000
vt 0.875000 0.500000
vt 0.875000 0.750000
vn -1.0000 0.0000 0.0000
vn 0.0000 0.0000 -1.0000
vn 1.0000 0.0000 0.0000
vn 0.0000 0.0000 1.0000
vn 0.0000 -1.0000 0.0000
vn 0.0000 1.0000 0.0000
usemtl None
s off
f 49/85/37 50/86/37 52/87/37 51/88/37
f 51/88/38 52/87/38 56/89/38 55/90/38
f 55/90/39 56/89/39 54/91/39 53/92/39
f 53/92/40 54/91/40 50/93/40 49/94/40
f 51/95/41 55/90/41 53/92/41 49/96/41
f 56/89/42 52/97/42 50/98/42 54/91/42
o Cube.007
v -53.158268 5.466611 -1.005607
v -53.158268 12.892932 -1.005607
v -53.158268 5.466611 -11.232629
v -53.158268 12.892932 -11.232629
v -43.436001 5.466611 -1.005607
v -43.436001 12.892932 -1.005607
v -43.436001 5.466611 -11.232629
v -43.436001 12.892932 -11.232629
vt 0.375000 0.000000
vt 0.625000 0.000000
vt 0.625000 0.250000
vt 0.375000 0.250000
vt 0.625000 0.500000
vt 0.375000 0.500000
vt 0.625000 0.750000
vt 0.375000 0.750000
vt 0.625000 1.000000
vt 0.375000 1.000000
vt 0.125000 0.500000
vt 0.125000 0.750000
vt 0.875000 0.500000
vt 0.875000 0.750000
vn -1.0000 0.0000 0.0000
vn 0.0000 0.0000 -1.0000
vn 1.0000 0.0000 0.0000
vn 0.0000 0.0000 1.0000
vn 0.0000 -1.0000 0.0000
vn 0.0000 1.0000 0.0000
usemtl None
s off
f 57/99/43 58/100/43 60/101/43 59/102/43
f 59/102/44 60/101/44 64/103/44 63/104/44
f 63/104/45 64/103/45 62/105/45 61/106/45
f 61/106/46 62/105/46 58/107/46 57/108/46
f 59/109/47 63/104/47 61/106/47 57/110/47
f 64/103/48 60/111/48 58/112/48 62/105/48
o Cube.008
v -53.158268 5.466611 -28.414337
v -53.158268 12.892932 -28.414337
v -53.158268 5.466611 -38.641357
v -53.158268 12.892932 -38.641357
v -43.436001 5.466611 -28.414337
v -43.436001 12.892932 -28.414337
v -43.436001 5.466611 -38.641357
v -43.436001 12.892932 -38.641357
vt 0.375000 0.000000
vt 0.625000 0.000000
vt 0.625000 0.250000
vt 0.375000 0.250000
vt 0.625000 0.500000
vt 0.375000 0.500000
vt 0.625000 0.750000
vt 0.375000 0.750000
vt 0.625000 1.000000
vt 0.375000 1.000000
vt 0.125000 0.500000
vt 0.125000 0.750000
vt 0.875000 0.500000
vt 0.875000 0.750000
vn -1.0000 0.0000 0.0000
vn 0.0000 0.0000 -1.0000
vn 1.0000 0.0000 0.0000
vn 0.0000 0.0000 1.0000
vn 0.0000 -1.0000 0.0000
vn 0.0000 1.0000 0.0000
usemtl None
s off
f 65/113/49 66/114/49 68/115/49 67/116/49
f 67/116/50 68/115/50 72/117/50 71/118/50
f 71/118/51 72/117/51 70/119/51 69/120/51
f 69/120/52 70/119/52 66/121/52 65/122/52
f 67/123/53 71/118/53 69/120/53 65/124/53
f 72/117/54 68/125/54 66/126/54 70/119/54
o Cube.009
v 41.918209 5.466611 -28.414337
v 41.918209 12.892932 -28.414337
v 41.918209 5.466611 -38.641357
v 41.918209 12.892932 -38.641357
v 51.640476 5.466611 -28.414337
v 51.640476 12.892932 -28.414337
v 51.640476 5.466611 -38.641357
v 51.640476 12.892932 -38.641357
vt 0.375000 0.000000
vt 0.625000 0.000000
vt 0.625000 0.250000
vt 0.375000 0.250000
vt 0.625000 0.500000
vt 0.375000 0.500000
vt 0.625000 0.750000
vt 0.375000 0.750000
vt 0.625000 1.000000
vt 0.375000 1.000000
vt 0.125000 0.500000
vt 0.125000 0.750000
vt 0.875000 0.500000
vt 0.875000 0.750000
vn -1.0000 0.0000 0.0000
vn 0.0000 0.0000 -1.0000
vn 1.0000 0.0000 0.0000
vn 0.0000 0.0000 1.0000
vn 0.0000 -1.0000 0.0000
vn 0.0000 1.0000 0.0000
usemtl None
s off
f 73/127/55 74/128/55 76/129/55 75/130/55
f 75/130/56 76/129/56 80/131/56 79/132/56
f 79/132/57 80/131/57 78/133/57 77/134/57
f 77/134/58 78/133/58 74/135/58 73/136/58
f 75/137/59 79/132/59 77/134/59 73/138/59
f 80/131/60 76/139/60 74/140/60 78/133/60
o Cube.010
v 41.918209 5.466611 -6.697803
v 41.918209 12.892932 -6.697803
v 41.918209 5.466611 -16.924824
v 41.918209 12.892932 -16.924824
v 51.640476 5.466611 -6.697803
v 51.640476 12.892932 -6.697803
v 51.640476 5.466611 -16.924824
v 51.640476 12.892932 -16.924824
vt 0.375000 0.000000
vt 0.625000 0.000000
vt 0.625000 0.250000
vt 0.375000 0.250000
vt 0.625000 0.500000
vt 0.375000 0.500000
vt 0.625000 0.750000
vt 0.375000 0.750000
vt 0.625000 1.000000
vt 0.375000 1.000000
vt 0.125000 0.500000
vt 0.125000 0.750000
vt 0.875000 0.500000
vt 0.875000 0.750000
vn -1.0000 0.0000 0.0000
vn 0.0000 0.0000 -1.0000
vn 1.0000 0.0000 0.0000
vn 0.0000 0.0000 1.0000
vn 0.0000 -1.0000 0.0000
vn 0.0000 1.0000 0.0000
usemtl None
s off
f 81/141/61 82/142/61 84/143/61 83/144/61
f 83/144/62 84/143/62 88/145/62 87/146/62
f 87/146/63 88/145/63 86/147/63 85/148/63
f 85/148/64 86/147/64 82/149/64 81/150/64
f 83/151/65 87/146/65 85/148/65 81/152/65
f 88/145/66 84/153/66 82/154/66 86/147/66
o Cube.011
v 41.918209 5.466611 16.431278
v 41.918209 12.892932 16.431278
v 41.918209 5.466611 6.204257
v 41.918209 12.892932 6.204257
v 51.640476 5.466611 16.431278
v 51.640476 12.892932 16.431278
v 51.640476 5.466611 6.204257
v 51.640476 12.892932 6.204257
vt 0.375000 0.000000
vt 0.625000 0.000000
vt 0.625000 0.250000
vt 0.375000 0.250000
vt 0.625000 0.500000
vt 0.375000 0.500000
vt 0.625000 0.750000
vt 0.375000 0.750000
vt 0.625000 1.000000
vt 0.375000 1.000000
vt 0.125000 0.500000
vt 0.125000 0.750000
vt 0.875000 0.500000
vt 0.875000 0.750000
vn -1.0000 0.0000 0.0000
vn 0.0000 0.0000 -1.0000
vn 1.0000 0.0000 0.0000
vn 0.0000 0.0000 1.0000
vn 0.0000 -1.0000 0.0000
vn 0.0000 1.0000 0.0000
usemtl None
s off
f 89/155/67 90/156/67 92/157/67 91/158/67
f 91/158/68 92/157/68 96/159/68 95/160/68
f 95/160/69 96/159/69 94/161/69 93/162/69
f 93/162/70 94/161/70 90/163/70 89/164/70
f 91/165/71 95/160/71 93/162/71 89/166/71
f 96/159/72 92/167/72 90/168/72 94/161/72
o Cube.012
v 41.918209 5.466611 39.347481
v 41.918209 12.892932 39.347481
v 41.918209 5.466611 29.120461
v 41.918209 12.892932 29.120461
v 51.640476 5.466611 39.347481
v 51.640476 12.892932 39.347481
v 51.640476 5.466611 29.120461
v 51.640476 12.892932 29.120461
vt 0.375000 0.000000
vt 0.625000 0.000000
vt 0.625000 0.250000
vt 0.375000 0.250000
vt 0.625000 0.500000
vt 0.375000 0.500000
vt 0.625000 0.750000
vt 0.375000 0.750000
vt 0.625000 1.000000
vt 0.375000 1.000000
vt 0.125000 0.500000
vt 0.125000 0.750000
vt 0.875000 0.500000
vt 0.875000 0.750000
vn -1.0000 0.0000 0.0000
vn 0.0000 0.0000 -1.0000
vn 1.0000 0.0000 0.0000
vn 0.0000 0.0000 1.0000
vn 0.0000 -1.0000 0.0000
vn 0.0000 1.0000 0.0000
usemtl None
s off
f 97/169/73 98/170/73 100/171/73 99/172/73
f 99/172/74 100/171/74 104/173/74 103/174/74
f 103/174/75 104/173/75 102/175/75 101/176/75
f 101/176/76 102/175/76 98/177/76 97/178/76
f 99/179/77 103/174/77 101/176/77 97/180/77
f 104/173/78 100/181/78 98/182/78 102/175/78
o Cube.013
v -17.455439 0.302057 25.608974
v -17.455439 9.504761 25.608974
v -14.734756 0.302057 23.168455
v -14.734756 9.504761 23.168455
v 0.207443 0.302057 45.299484
v 0.207443 9.504761 45.299484
v 2.928125 0.302057 42.858967
v 2.928125 9.504761 42.858967
vt 0.375000 0.000000
vt 0.625000 0.000000
vt 0.625000 0.250000
vt 0.375000 0.250000
vt 0.625000 0.500000
vt 0.375000 0.500000
vt 0.625000 0.750000
vt 0.375000 0.750000
vt 0.625000 1.000000
vt 0.375000 1.000000
vt 0.125000 0.500000
vt 0.125000 0.750000
vt 0.875000 0.500000
vt 0.875000 0.750000
vn -0.6677 0.0000 -0.7444
vn 0.7444 0.0000 -0.6677
vn 0.6677 0.0000 0.7444
vn -0.7444 0.0000 0.6677
vn 0.0000 -1.0000 0.0000
vn 0.0000 1.0000 0.0000
usemtl None
s off
f 105/183/79 106/184/79 108/185/79 107/186/79
f 107/186/80 108/185/80 112/187/80 111/188/80
f 111/188/81 112/187/81 110/189/81 109/190/81
f 109/190/82 110/189/82 106/191/82 105/192/82
f 107/193/83 111/188/83 109/190/83 105/194/83
f 112/187/84 108/195/84 106/196/84 110/189/84
o Cube.014
v -1.274385 21.693367 -15.016386
v -4.726671 27.623661 -8.884251
v 1.716589 21.300774 -12.952848
v -1.735697 27.231068 -6.820713
v -12.791616 1.666767 -2.132969
v -16.243902 7.597061 3.999166
v -9.800642 1.274174 -0.069431
v -13.252928 7.204468 6.062704
vt 0.375000 0.000000
vt 0.625000 0.000000
vt 0.625000 0.250000
vt 0.375000 0.250000
vt 0.625000 0.500000
vt 0.375000 0.500000
vt 0.625000 0.750000
vt 0.375000 0.750000
vt 0.625000 1.000000
vt 0.375000 1.000000
vt 0.125000 0.500000
vt 0.125000 0.750000
vt 0.875000 0.500000
vt 0.875000 0.750000
vn 0.4354 0.7571 -0.4871
vn 0.8183 -0.1074 0.5646
vn -0.4354 -0.7571 0.4871
vn -0.8183 0.1074 -0.5646
vn 0.3751 -0.6444 -0.6663
vn -0.3751 0.6444 0.6663
usemtl None
s off
f 113/197/85 114/198/85 116/199/85 115/200/85
f 115/200/86 116/199/86 120/201/86 119/202/86
f 119/202/87 120/201/87 118/203/87 117/204/87
f 117/204/88 118/203/88 114/205/88 113/206/88
f 115/207/89 119/202/89 117/204/89 113/208/89
f 120/201/90 116/209/90 114/210/90 118/203/90
o Cube.015
v 78.247101 1.000000 -69.681831
v 78.247101 -1.000000 -69.681831
v 78.247101 1.000000 69.681831
v 78.247101 -1.000000 69.681831
v -78.247101 1.000000 -69.681831
v -78.247101 -1.000000 -69.681831
v -78.247101 1.000000 69.681831
v -78.247101 -1.000000 69.681831
vt 0.625000 0.500000
vt 0.875000 0.500000
vt 0.875000 0.750000
vt 0.626878 0.750000
vt 0.375000 0.750000
vt 0.625000 1.000000
vt 0.375000 1.000000
vt 0.375000 0.000000
vt 0.625000 0.000000
vt 0.625000 0.250000
vt 0.375000 0.250000
vt 0.125000 0.500000
vt 0.375000 0.500000
vt 0.125000 0.750000
vn 0.0000 1.0000 0.0000
vn 0.0000 0.0000 1.0000
vn -1.0000 0.0000 0.0000
vn 0.0000 -1.0000 0.0000
vn 1.0000 0.0000 0.0000
vn 0.0000 0.0000 -1.0000
usemtl Material.007
s off
f 121/211/91 125/212/91 127/213/91 123/214/91
f 124/215/92 123/214/92 127/216/92 128/217/92
f 128/218/93 127/219/93 125/220/93 126/221/93
f 126/222/94 122/223/94 124/215/94 128/224/94
f 122/223/95 121/211/95 123/214/95 124/215/95
f 126/221/96 125/220/96 121/211/96 122/223/96
o Cube.016
v -1.274385 21.693367 -15.016386
v -4.726671 27.623661 -8.884251
v 1.716589 21.300774 -12.952848
v -1.735697 27.231068 -6.820713
v -12.791616 1.666767 -2.132969
v -16.243902 7.597061 3.999166
v -9.800642 1.274174 -0.069431
v -13.252928 7.204468 6.062704
vt 0.375000 0.000000
vt 0.625000 0.000000
vt 0.625000 0.250000
vt 0.375000 0.250000
vt 0.625000 0.500000
vt 0.375000 0.500000
vt 0.625000 0.750000
vt 0.375000 0.750000
vt 0.625000 1.000000
vt 0.375000 1.000000
vt 0.125000 0.500000
vt 0.125000 0.750000
vt 0.875000 0.500000
vt 0.875000 0.750000
vn 0.4354 0.7571 -0.4871
vn 0.8183 -0.1074 0.5646
vn -0.4354 -0.7571 0.4871
vn -0.8183 0.1074 -0.5646
vn 0.3751 -0.6444 -0.6663
vn -0.3751 0.6444 0.6663
usemtl None
s off
f 129/225/97 130/226/97 132/227/97 131/228/97
f 131/228/98 132/227/98 136/229/98 135/230/98
f 135/230/99 136/229/99 134/231/99 133/232/99
f 133/232/100 134/231/100 130/233/100 129/234/100
f 131/235/101 135/230/101 133/232/101 129/236/101
f 136/229/102 132/237/102 130/238/102 134/231/102
