# Blender v2.93.0 OBJ File: 'map_light.blend'
# www.blender.org
mtllib map.mtl
o worldspawn_3577
v -3.920000 0.000000 6.120000
v -3.920000 0.920000 6.120000
v -3.920000 0.000000 2.440000
v -3.920000 0.920000 2.440000
v -3.000000 0.000000 6.120000
v -3.000000 0.920000 6.120000
v -3.000000 0.000000 2.440000
v -3.000000 0.920000 2.440000
vt -4.999367 -0.000000
vt -4.999367 0.999930
vt -0.999646 0.999930
vt -0.999646 -0.000000
vt -4.999367 -0.000000
vt -0.999646 -0.000000
vt -0.999646 0.999930
vt -4.999367 0.999930
vt -1.998854 -0.000000
vt -0.998924 -0.000000
vt -0.998924 0.999930
vt -1.998854 0.999930
vt -1.998854 -0.000000
vt -1.998854 0.999930
vt -0.998924 0.999930
vt -0.998924 -0.000000
vt -1.998854 -4.999367
vt -1.998854 -0.999646
vt -0.998924 -0.999646
vt -0.998924 -4.999367
vt -1.998854 -4.999367
vt -0.998924 -4.999367
vt -0.998924 -0.999646
vt -1.998854 -0.999646
vn -1.0000 0.0000 0.0000
vn 1.0000 0.0000 0.0000
vn 0.0000 0.0000 1.0000
vn 0.0000 0.0000 -1.0000
vn 0.0000 -1.0000 0.0000
vn 0.0000 1.0000 0.0000
usemtl de_dust/picrate2
s off
f 1/1/1 2/2/1 4/3/1 3/4/1
f 5/5/2 7/6/2 8/7/2 6/8/2
f 1/9/3 5/10/3 6/11/3 2/12/3
f 3/13/4 4/14/4 8/15/4 7/16/4
f 1/17/5 3/18/5 7/19/5 5/20/5
f 2/21/6 6/22/6 8/23/6 4/24/6
o worldspawn_3584
v -3.000000 0.000000 5.200000
v -3.000000 0.920000 5.200000
v -3.000000 0.000000 4.280000
v -3.000000 0.920000 4.280000
v -2.080000 0.000000 5.200000
v -2.080000 0.920000 5.200000
v -2.080000 0.000000 4.280000
v -2.080000 0.920000 4.280000
vt -1.999437 -0.000000
vt -1.999437 0.999930
vt -0.999507 0.999930
vt -0.999507 -0.000000
vt -1.999437 -0.000000
vt -0.999507 -0.000000
vt -0.999507 0.999930
vt -1.999437 0.999930
vt -1.998924 -0.000000
vt -0.998994 -0.000000
vt -0.998994 0.999930
vt -1.998924 0.999930
vt -1.998924 -0.000000
vt -1.998924 0.999930
vt -0.998994 0.999930
vt -0.998994 -0.000000
vt -1.998924 -1.999437
vt -1.998924 -0.999507
vt -0.998994 -0.999507
vt -0.998994 -1.999437
vt -1.998924 -1.999437
vt -0.998994 -1.999437
vt -0.998994 -0.999507
vt -1.998924 -0.999507
vn -1.0000 0.0000 0.0000
vn 1.0000 0.0000 0.0000
vn 0.0000 0.0000 1.0000
vn 0.0000 0.0000 -1.0000
vn 0.0000 -1.0000 0.0000
vn 0.0000 1.0000 0.0000
usemtl de_dust/picrate2
s off
f 9/25/7 10/26/7 12/27/7 11/28/7
f 13/29/8 15/30/8 16/31/8 14/32/8
f 9/33/9 13/34/9 14/35/9 10/36/9
f 11/37/10 12/38/10 16/39/10 15/40/10
f 9/41/11 11/42/11 15/43/11 13/44/11
f 10/45/12 14/46/12 16/47/12 12/48/12
o worldspawn_3591
v -4.840000 0.000000 5.200000
v -4.840000 0.920000 5.200000
v -4.840000 0.000000 4.280000
v -4.840000 0.920000 4.280000
v -3.920000 0.000000 5.200000
v -3.920000 0.920000 5.200000
v -3.920000 0.000000 4.280000
v -3.920000 0.920000 4.280000
vt -1.999437 -0.000000
vt -1.999437 0.999930
vt -0.999507 0.999930
vt -0.999507 -0.000000
vt -1.999437 -0.000000
vt -0.999507 -0.000000
vt -0.999507 0.999930
vt -1.999437 0.999930
vt -1.998785 -0.000000
vt -0.998854 -0.000000
vt -0.998854 0.999930
vt -1.998785 0.999930
vt -1.998785 -0.000000
vt -1.998785 0.999930
vt -0.998854 0.999930
vt -0.998854 -0.000000
vt -1.998785 -1.999437
vt -1.998785 -0.999507
vt -0.998854 -0.999507
vt -0.998854 -1.999437
vt -1.998785 -1.999437
vt -0.998854 -1.999437
vt -0.998854 -0.999507
vt -1.998785 -0.999507
vn -1.0000 0.0000 0.0000
vn 1.0000 0.0000 0.0000
vn 0.0000 0.0000 1.0000
vn 0.0000 0.0000 -1.0000
vn 0.0000 -1.0000 0.0000
vn 0.0000 1.0000 0.0000
usemtl de_dust/picrate2
s off
f 17/49/13 18/50/13 20/51/13 19/52/13
f 21/53/14 23/54/14 24/55/14 22/56/14
f 17/57/15 21/58/15 22/59/15 18/60/15
f 19/61/16 20/62/16 24/63/16 23/64/16
f 17/65/17 19/66/17 23/67/17 21/68/17
f 18/69/18 22/70/18 24/71/18 20/72/18
o worldspawn_4541
v -9.440000 -0.640000 11.520000
v -9.440000 0.000000 11.520000
v -9.440000 -0.640000 -8.960000
v -9.440000 0.000000 -8.960000
v 8.960000 -0.640000 11.520000
v 8.960000 0.000000 11.520000
v 8.960000 -0.640000 -8.960000
v 8.960000 0.000000 -8.960000
vt 8192.000000 -256.000000
vt 8192.000000 -0.000000
vt 0.000000 -0.000000
vt 0.000000 -256.000000
vt -8192.000000 -256.000000
vt 0.000000 -256.000000
vt 0.000000 -0.000000
vt -8192.000000 -0.000000
vt -7360.000000 -256.000000
vt 0.000000 -256.000000
vt 0.000000 -0.000000
vt -7360.000000 -0.000000
vt 7360.000000 -256.000000
vt 7360.000000 -0.000000
vt 7360.000000 -8192.000000
vt 7360.000000 0.000000
vt 0.000000 0.000000
vt 0.000000 -8192.000000
vt -6.687500 -7.500000
vt 0.500000 -7.500000
vt 0.500000 0.500000
vt -6.687500 0.500000
vn -1.0000 0.0000 0.0000
vn 1.0000 0.0000 0.0000
vn 0.0000 0.0000 1.0000
vn 0.0000 0.0000 -1.0000
vn 0.0000 -1.0000 0.0000
vn 0.0000 1.0000 0.0000
usemtl tools/toolsnodraw
s off
f 25/73/19 26/74/19 28/75/19 27/76/19
f 29/77/20 31/78/20 32/79/20 30/80/20
f 25/81/21 29/82/21 30/83/21 26/84/21
f 27/85/22 28/86/22 32/79/22 31/78/22
f 25/87/23 27/88/23 31/89/23 29/90/23
usemtl concrete/concretefloor031a
f 26/91/24 30/92/24 32/93/24 28/94/24
o worldspawn_4579
v -9.599999 -0.640000 11.520000
v -9.599999 1.280000 11.520000
v -9.599999 -0.640000 -8.960000
v -9.599999 1.280000 -8.960000
v -9.440000 -0.640000 11.520000
v -9.440000 1.280000 11.520000
v -9.440000 -0.640000 -8.960000
v -9.440000 1.280000 -8.960000
vt 8192.000000 -0.999985
vt 8192.000000 767.000000
vt 0.000000 767.000000
vt 0.000000 -0.999985
vt -64.000000 -0.999985
vt 0.000000 -0.999985
vt 0.000000 767.000000
vt -64.000000 767.000000
vt 64.000000 -0.999985
vt 64.000000 767.000000
vt 0.000000 767.000000
vt 0.000000 -0.999985
vt 64.000000 -8192.000000
vt 64.000000 0.000000
vt 0.000000 0.000000
vt 0.000000 -8192.000000
vt -64.000000 -8192.000000
vt 0.000000 -8192.000000
vt 0.000000 0.000000
vt -64.000000 0.000000
vt -7.500000 -0.500000
vt 0.500000 -0.500000
vt 0.500000 1.000000
vt -7.500000 1.000000
vn -1.0000 0.0000 0.0000
vn 0.0000 0.0000 1.0000
vn 0.0000 0.0000 -1.0000
vn 0.0000 -1.0000 0.0000
vn 0.0000 1.0000 0.0000
vn 1.0000 0.0000 0.0000
usemtl tools/toolsnodraw
s off
f 33/95/25 34/96/25 36/97/25 35/98/25
f 33/99/26 37/100/26 38/101/26 34/102/26
f 35/103/27 36/104/27 40/105/27 39/106/27
f 33/107/28 35/108/28 39/109/28 37/110/28
f 34/111/29 38/112/29 40/113/29 36/114/29
usemtl concrete/concrete_ext_14b
f 37/115/30 39/116/30 40/117/30 38/118/30
o worldspawn_4593
v 8.960000 -0.640000 11.520000
v 8.960000 1.280000 11.520000
v 8.960000 -0.640000 -8.960000
v 8.960000 1.280000 -8.960000
v 9.120000 -0.640000 11.520000
v 9.120000 1.280000 11.520000
v 9.120000 -0.640000 -8.960000
v 9.120000 1.280000 -8.960000
vt -7.500000 -0.500000
vt -7.500000 1.000000
vt 0.500000 1.000000
vt 0.500000 -0.500000
vt -8192.000000 -0.999985
vt 0.000000 -0.999985
vt 0.000000 767.000000
vt -8192.000000 767.000000
vt 0.000000 -0.999985
vt 64.000000 -0.999985
vt 64.000000 767.000000
vt 0.000000 767.000000
vt 0.000000 -0.999985
vt 0.000000 767.000000
vt -64.000000 767.000000
vt -64.000000 -0.999985
vt 0.000000 -8192.000000
vt 0.000000 0.000000
vt -64.000000 0.000000
vt -64.000000 -8192.000000
vt 0.000000 -8192.000000
vt 64.000000 -8192.000000
vt 64.000000 0.000000
vt 0.000000 0.000000
vn -1.0000 0.0000 0.0000
vn 1.0000 0.0000 0.0000
vn 0.0000 0.0000 1.0000
vn 0.0000 0.0000 -1.0000
vn 0.0000 -1.0000 0.0000
vn 0.0000 1.0000 0.0000
usemtl concrete/concrete_ext_14b
s off
f 41/119/31 42/120/31 44/121/31 43/122/31
usemtl tools/toolsnodraw
f 45/123/32 47/124/32 48/125/32 46/126/32
f 41/127/33 45/128/33 46/129/33 42/130/33
f 43/131/34 44/132/34 48/133/34 47/134/34
f 41/135/35 43/136/35 47/137/35 45/138/35
f 42/139/36 46/140/36 48/141/36 44/142/36
o worldspawn_4600
v -9.599999 -0.640000 -8.959999
v -9.599999 1.280000 -8.959999
v -9.599999 -0.640000 -10.240000
v -9.599999 1.280000 -10.240000
v 9.120000 -0.640000 -8.959999
v 9.120000 1.280000 -8.959999
v 9.120000 -0.640000 -10.240000
v 9.120000 1.280000 -10.240000
vt 0.000000 -0.999985
vt 0.000000 767.000000
vt -512.000000 767.000000
vt -512.000000 -0.999985
vt 0.000000 -0.999985
vt 512.000000 -0.999985
vt 512.000000 767.000000
vt 0.000000 767.000000
vt 7488.000000 -0.999985
vt 7488.000000 767.000000
vt 0.000000 767.000000
vt 0.000000 -0.999985
vt 7488.000000 0.000000
vt 7488.000000 512.000000
vt 0.000000 512.000000
vt 0.000000 0.000000
vt -7488.000000 0.000000
vt 0.000000 0.000000
vt 0.000000 512.000000
vt -7488.000000 512.000000
vt -0.375000 -0.500000
vt 6.937500 -0.500000
vt 6.937500 1.000000
vt -0.375000 1.000000
vn -1.0000 0.0000 0.0000
vn 1.0000 0.0000 0.0000
vn 0.0000 0.0000 -1.0000
vn 0.0000 -1.0000 0.0000
vn 0.0000 1.0000 0.0000
vn 0.0000 0.0000 1.0000
usemtl tools/toolsnodraw
s off
f 49/143/37 50/144/37 52/145/37 51/146/37
f 53/147/38 55/148/38 56/149/38 54/150/38
f 51/151/39 52/152/39 56/153/39 55/154/39
f 49/155/40 51/156/40 55/157/40 53/158/40
f 50/159/41 54/160/41 56/161/41 52/162/41
usemtl concrete/concrete_ext_14b
f 49/163/42 53/164/42 54/165/42 50/166/42
o worldspawn_4621
v -9.599999 -0.640000 12.800000
v -9.599999 -0.640000 11.520000
v 9.120000 -0.640000 12.800000
v 9.120000 -0.640000 11.520000
v -9.599999 1.280000 12.800000
v -9.599999 1.280000 11.520000
v 9.120000 1.280000 12.800000
v 9.120000 1.280000 11.520000
vt 7488.000000 -512.000000
vt 7488.000000 0.000000
vt 0.000000 0.000000
vt 0.000000 -512.000000
vt -7488.000000 -512.000000
vt 0.000000 -512.000000
vt 0.000000 0.000000
vt -7488.000000 0.000000
vt 512.000000 -0.999985
vt 512.000000 767.000000
vt 0.000000 767.000000
vt 0.000000 -0.999985
vt -512.000000 -0.999985
vt 0.000000 -0.999985
vt 0.000000 767.000000
vt -512.000000 767.000000
vt -7488.000000 -0.999985
vt 0.000000 -0.999985
vt 0.000000 767.000000
vt -7488.000000 767.000000
vt -6.750000 -0.500000
vt -6.750000 1.000000
vt 0.562500 1.000000
vt 0.562500 -0.500000
vn 0.0000 -1.0000 0.0000
vn 0.0000 1.0000 0.0000
vn -1.0000 0.0000 0.0000
vn 1.0000 0.0000 0.0000
vn 0.0000 0.0000 1.0000
vn 0.0000 0.0000 -1.0000
usemtl tools/toolsnodraw
s off
f 57/167/43 58/168/43 60/169/43 59/170/43
f 61/171/44 63/172/44 64/173/44 62/174/44
f 57/175/45 61/176/45 62/177/45 58/178/45
f 59/179/46 60/180/46 64/181/46 63/182/46
f 57/183/47 59/184/47 63/185/47 61/186/47
usemtl concrete/concrete_ext_14b
f 58/187/48 62/188/48 64/189/48 60/190/48
