# Blender v3.0.0 OBJ File: ''
# www.blender.org
mtllib door.mtl
o Cube_Cube.001
v 0.330784 -1.494633 0.064501
v 0.330784 6.101368 0.064501
v 0.330784 -1.494633 -1.033262
v 0.330784 6.101368 -1.033262
v 6.579804 -1.494633 0.064501
v 6.579804 6.101368 0.064501
v 6.579804 -1.494633 -1.033262
v 6.579804 6.101368 -1.033262
vt 0.375000 0.000000
vt 0.625000 0.000000
vt 0.625000 0.250000
vt 0.375000 0.250000
vt 0.625000 0.500000
vt 0.375000 0.500000
vt 0.625000 0.750000
vt 0.375000 0.750000
vt 0.625000 1.000000
vt 0.375000 1.000000
vt 0.125000 0.500000
vt 0.125000 0.750000
vt 0.875000 0.500000
vt 0.875000 0.750000
vn -1.0000 0.0000 0.0000
vn 0.0000 0.0000 -1.0000
vn 1.0000 0.0000 0.0000
vn 0.0000 0.0000 1.0000
vn 0.0000 -1.0000 0.0000
vn 0.0000 1.0000 0.0000
usemtl Material
s off
f 1/1/1 2/2/1 4/3/1 3/4/1
f 3/4/2 4/3/2 8/5/2 7/6/2
f 7/6/3 8/5/3 6/7/3 5/8/3
f 5/8/4 6/7/4 2/9/4 1/10/4
f 3/11/5 7/6/5 5/8/5 1/12/5
f 8/5/6 4/13/6 2/14/6 6/7/6
o Cube.001_Cube.002
v 0.383095 6.104470 0.038524
v 0.383095 6.104470 -9.688786
v 6.524076 6.104470 0.038524
v 6.524076 6.104470 -9.688786
v 0.383095 7.567461 0.038524
v 0.383095 7.567461 -9.688786
v 6.524076 7.567461 0.038524
v 6.524076 7.567461 -9.688786
vt 0.375000 0.000000
vt 0.625000 0.000000
vt 0.625000 0.250000
vt 0.375000 0.250000
vt 0.625000 0.500000
vt 0.375000 0.500000
vt 0.625000 0.750000
vt 0.375000 0.750000
vt 0.625000 1.000000
vt 0.375000 1.000000
vt 0.125000 0.500000
vt 0.125000 0.750000
vt 0.875000 0.500000
vt 0.875000 0.750000
vn 0.0000 -1.0000 -0.0000
vn 1.0000 0.0000 0.0000
vn 0.0000 1.0000 0.0000
vn -1.0000 0.0000 -0.0000
vn 0.0000 0.0000 1.0000
vn 0.0000 0.0000 -1.0000
usemtl Material
s off
f 9/15/7 10/16/7 12/17/7 11/18/7
f 11/18/8 12/17/8 16/19/8 15/20/8
f 15/20/9 16/19/9 14/21/9 13/22/9
f 13/22/10 14/21/10 10/23/10 9/24/10
f 11/25/11 15/20/11 13/22/11 9/26/11
f 16/19/12 12/27/12 10/28/12 14/21/12
o Cube.002_Cube.003
v 6.170835 -1.460061 -8.457111
v 6.170834 6.136992 -8.457111
v 6.170835 -1.460061 -9.549559
v 6.170834 6.136992 -9.549559
v 0.790006 -1.460062 -8.457111
v 0.790005 6.136991 -8.457111
v 0.790006 -1.460062 -9.549559
v 0.790005 6.136991 -9.549559
vt 0.375000 0.000000
vt 0.375000 0.250000
vt 0.625000 0.250000
vt 0.625000 0.000000
vt 0.375000 0.500000
vt 0.625000 0.500000
vt 0.375000 0.750000
vt 0.625000 0.750000
vt 0.375000 1.000000
vt 0.625000 1.000000
vt 0.125000 0.500000
vt 0.125000 0.750000
vt 0.875000 0.750000
vt 0.875000 0.500000
vn 1.0000 0.0000 0.0000
vn 0.0000 0.0000 -1.0000
vn -1.0000 -0.0000 0.0000
vn -0.0000 0.0000 1.0000
vn 0.0000 -1.0000 0.0000
vn -0.0000 1.0000 0.0000
usemtl Material
s off
f 17/29/13 19/30/13 20/31/13 18/32/13
f 19/30/14 23/33/14 24/34/14 20/31/14
f 23/33/15 21/35/15 22/36/15 24/34/15
f 21/35/16 17/37/16 18/38/16 22/36/16
f 19/39/17 17/40/17 21/35/17 23/33/17
f 24/34/18 22/36/18 18/41/18 20/42/18
